<?xml version="1.0" encoding="utf-8"?>
<!-- Generator: Adobe Illustrator 22.1.0, SVG Export Plug-In . SVG Version: 6.00 Build 0)  -->
<svg version="1.1" baseProfile="tiny" id="Layer_1" xmlns="http://www.w3.org/2000/svg" xmlns:xlink="http://www.w3.org/1999/xlink"
	 x="0px" y="0px" viewBox="0 0 105.2 65.7" xml:space="preserve">
<path fill="#010101" d="M104.1,32.9c0,17.4-23,31.5-51.4,31.5c-28.4,0-51.4-14.1-51.4-31.5c0-17.4,23-31.5,51.4-31.5
	C81.1,1.4,104.1,15.5,104.1,32.9"/>
<path fill="#A7A8A9" d="M52.7,65.2c-13.9,0-27-3.3-36.8-9.3c-10-6.1-15.5-14.3-15.5-23c0-8.7,5.5-16.9,15.5-23
	c9.8-6,22.9-9.3,36.8-9.3c13.9,0,27,3.3,36.8,9.3c10,6.1,15.5,14.3,15.5,23c0,8.7-5.5,16.9-15.5,23C79.6,61.9,66.5,65.2,52.7,65.2
	 M52.7,2.2C24.8,2.2,2,16,2,32.9c0,16.9,22.7,30.7,50.6,30.7c27.9,0,50.6-13.8,50.6-30.7C103.3,16,80.6,2.2,52.7,2.2"/>
<path fill="#FFFFFF" d="M25.4,15.5c-7,0-12.1,4.8-12.1,11.4c0,6.5,5.1,11.4,12,11.4c2.2,0,5.5-0.6,8.7-3.4l0,0v-8
	c0-0.1-0.3-1.6-1.7-1.6h-7.8v4.1h4.5v3.5l-0.1,0c-1.1,0.5-2.6,0.6-3.6,0.6c-3.8,0-6.5-2.8-6.5-6.6c0-1.8,0.6-3.4,1.6-4.6
	c1.2-1.4,3-2.1,5.2-2.1c1.6,0,3.4,0.6,4.8,1.7l0,0l2.8-3.7l0,0C30.7,16.3,28.4,15.5,25.4,15.5"/>
<path fill="#FFFFFF" d="M89.6,38.3c1.7,0,3.2-0.5,4.4-1.6l0,0L94,36.5c-0.5-1-1.1-2.1-1.6-3.2l0,0l0,0c-0.5,0.3-1.3,0.5-1.6,0.5
	c-0.8,0-1.5-0.2-2.3-1.4l-1.9-3.3l0-0.1c0.8-1,1.6-2,2.3-3l0.3-0.4c0.8-1,1.7-2.2,2.6-3.4l0,0v-0.6h-5.7l-0.3,0.5
	c-1.2,1.9-2.7,4.1-4.1,6.1l-0.2,0.3V17.6c0-0.1,0-1.7-1.7-1.7h-3.5v22h5.2v-7.7l2.1,3.8C85.3,37.2,86.9,38.3,89.6,38.3"/>
<path fill="#FFFFFF" d="M69.1,33.1c-0.9,0.7-2.3,1-3.5,1c-2,0-4.3-1-4.6-3.2l0-0.2h12.7l0.4-0.4c0-0.3,0-0.7,0-1
	c0-5.4-3.8-9.2-8.9-9.2c-5.3,0-9.1,3.8-9.1,9.1c0,5.3,3.8,9.2,9.1,9.2c3,0,5.4-1,7.1-2.6l0,0L69.1,33.1L69.1,33.1z M61.1,27.6
	c0.5-2.3,2.5-3.3,4.3-3.3c2.5,0,3.9,1.7,4.1,3.3l0,0.2H61L61.1,27.6z"/>
<path fill="#FFFFFF" d="M49.3,33.1c-0.9,0.7-2.3,1-3.5,1c-2,0-4.3-1-4.6-3.2l0-0.2h12.7l0.4-0.4c0-0.3,0-0.7,0-1
	c0-5.4-3.8-9.2-8.9-9.2c-5.3,0-9.1,3.8-9.1,9.1c0,5.3,3.8,9.2,9.1,9.2c3,0,5.4-1,7.1-2.6l0,0L49.3,33.1L49.3,33.1z M41.2,27.6
	c0.5-2.3,2.5-3.3,4.3-3.3c2.5,0,3.9,1.7,4.1,3.3l0,0.2h-8.4L41.2,27.6z"/>
<path fill="#F58025" d="M34.2,47.8c-0.2-0.3-0.4-0.5-0.7-0.7c-0.3-0.2-0.7-0.3-1.1-0.4c-0.4-0.1-0.9-0.2-1.4-0.3
	c-0.3,0-0.6-0.1-0.9-0.1c-0.3-0.1-0.5-0.1-0.6-0.2c-0.2-0.1-0.3-0.2-0.4-0.3C29,45.7,29,45.5,29,45.4c0-0.2,0-0.3,0.1-0.4
	c0-0.1,0.1-0.2,0.2-0.3c0.1-0.1,0.3-0.1,0.5-0.2c0.2,0,0.5-0.1,0.8-0.1c0.2,0,0.5,0,0.7,0.1c0.2,0,0.5,0.1,0.7,0.1
	c0.2,0.1,0.4,0.1,0.6,0.2c0.1,0,0.1,0.1,0.2,0.1l0,0c0,0,0.3,0.2,0.5-0.1l0.8-1.2l0,0l0,0c-0.3-0.2-0.8-0.4-1.3-0.6
	c-0.6-0.2-1.3-0.3-2.2-0.3c-0.6,0-1.1,0-1.6,0.1c-0.5,0.1-0.8,0.2-1.1,0.5c-0.3,0.2-0.5,0.5-0.7,0.8c-0.1,0.3-0.2,0.7-0.2,1.2
	c0,0.5,0.1,0.9,0.2,1.2c0.1,0.3,0.4,0.6,0.7,0.8c0.3,0.2,0.7,0.3,1.1,0.4c0.4,0.1,0.9,0.2,1.5,0.3c0.3,0,0.6,0.1,0.9,0.1
	c0.3,0,0.5,0.1,0.6,0.2c0.2,0.1,0.3,0.2,0.4,0.3c0.1,0.1,0.1,0.2,0.1,0.4c0,0.2,0,0.3-0.1,0.5c-0.1,0.1-0.1,0.2-0.3,0.3
	c-0.1,0.1-0.3,0.1-0.6,0.2c-0.3,0-0.6,0.1-1,0.1c-0.5,0-1.1-0.1-1.6-0.2c-0.4-0.1-0.7-0.3-1.1-0.5l0,0c0,0-0.4-0.3-0.6,0.1l-0.7,1.1
	l0,0l0,0c0.5,0.4,1.1,0.6,1.8,0.8c0.7,0.2,1.5,0.3,2.3,0.3c0.7,0,1.3-0.1,1.8-0.2c0.5-0.1,0.9-0.3,1.2-0.5c0.3-0.2,0.5-0.5,0.6-0.9
	c0.1-0.3,0.2-0.7,0.2-1.2C34.5,48.5,34.4,48.1,34.2,47.8"/>
<path fill="#F58025" d="M55.5,42.9c-0.4,0-0.4,0.3-0.4,0.3V48c0,0.3,0,0.6-0.1,0.9c-0.1,0.2-0.2,0.4-0.3,0.6
	c-0.1,0.2-0.4,0.3-0.6,0.4c-0.3,0.1-0.6,0.1-1,0.1c-0.4,0-0.8,0-1-0.1c-0.3-0.1-0.5-0.2-0.6-0.4c-0.1-0.2-0.2-0.4-0.3-0.6
	c0-0.2-0.1-0.5-0.1-0.8v-4.8c0,0,0-0.3-0.4-0.3h-1.6v5.4c0,0.4,0,0.8,0.1,1.2c0.1,0.4,0.2,0.8,0.5,1.1c0.3,0.3,0.7,0.6,1.2,0.8
	c0.5,0.2,1.3,0.3,2.2,0.3c0.9,0,1.6-0.1,2.2-0.3c0.5-0.2,0.9-0.5,1.2-0.8c0.3-0.3,0.4-0.7,0.5-1.1c0.1-0.4,0.1-0.8,0.1-1.2v-5.4
	H55.5z"/>
<path fill="#F58025" d="M61.8,51.2l0.4-1h3.9l0.4,1.1c0,0.1,0.1,0.3,0.4,0.3h1.7l-3.5-8.7l0,0h-2l-3.5,8.7l0,0h1.6
	C61.4,51.6,61.7,51.6,61.8,51.2 M64.2,45.2l1.3,3.3h-2.6L64.2,45.2z"/>
<path fill="#F58025" d="M78.9,45.1c-0.2-0.6-0.5-1-0.9-1.3c-0.4-0.3-0.9-0.6-1.5-0.7c-0.6-0.1-1.3-0.2-2.2-0.2h-2.6
	c-0.5,0-0.5,0.3-0.5,0.3v8.4h3.1c0.8,0,1.6-0.1,2.2-0.2c0.6-0.1,1.1-0.4,1.5-0.7c0.4-0.3,0.7-0.8,0.9-1.3c0.2-0.6,0.3-1.3,0.3-2.1
	C79.2,46.4,79.1,45.7,78.9,45.1 M77.1,48.5c-0.1,0.3-0.2,0.6-0.4,0.8c-0.2,0.2-0.5,0.4-0.8,0.4c-0.4,0.1-0.8,0.1-1.4,0.1h-1.2v-5.2
	h1.2c0.6,0,1.1,0,1.5,0.1s0.7,0.2,0.9,0.4c0.2,0.2,0.3,0.5,0.4,0.8c0.1,0.3,0.1,0.7,0.1,1.2C77.2,47.7,77.1,48.2,77.1,48.5"/>
<path fill="#F58025" d="M46.5,52.5l-1.4-2c0.3-0.3,0.6-0.7,0.7-1.2c0.2-0.6,0.3-1.3,0.3-2.1c0-0.8-0.1-1.5-0.3-2.1
	c-0.2-0.6-0.5-1-0.9-1.4c-0.4-0.4-0.9-0.6-1.4-0.8c-0.6-0.2-1.2-0.2-1.9-0.2c-0.7,0-1.3,0.1-1.9,0.2c-0.6,0.2-1,0.4-1.4,0.8
	c-0.4,0.4-0.7,0.8-0.9,1.4c-0.2,0.6-0.3,1.3-0.3,2.1c0,0.8,0.1,1.5,0.3,2.1c0.2,0.6,0.5,1,0.9,1.4c0.4,0.4,0.9,0.6,1.4,0.8
	c0.6,0.2,1.2,0.2,1.9,0.2c0.7,0,1.3-0.1,1.9-0.2c0,0,0,0,0,0l1.3,1.8l0,0c0.1,0.1,0.3,0.3,0.6,0.1L46.5,52.5z M41.6,50
	c-0.5,0-0.9-0.1-1.2-0.2c-0.3-0.1-0.6-0.3-0.8-0.5c-0.2-0.2-0.3-0.5-0.4-0.9C39,48.1,39,47.7,39,47.3c0-0.4,0-0.8,0.1-1.1
	s0.2-0.6,0.4-0.8c0.2-0.2,0.5-0.4,0.8-0.5c0.3-0.1,0.7-0.2,1.2-0.2c0.5,0,0.9,0.1,1.2,0.2c0.3,0.1,0.6,0.3,0.8,0.5
	c0.2,0.2,0.3,0.5,0.4,0.8s0.1,0.7,0.1,1.1c0,0.4,0,0.8-0.1,1.1c-0.1,0.3-0.2,0.6-0.4,0.9c-0.2,0.2-0.5,0.4-0.8,0.5
	C42.5,49.9,42,50,41.6,50"/>
<path fill="#F58025" d="M83.8,44.8h-0.3v-1.6h0l-0.6,1.6h-0.2l-0.6-1.6h0v1.6h-0.3V43h0.4l0.6,1.4l0.6-1.4h0.4V44.8z M81.4,43.2
	h-0.6v1.6h-0.3v-1.6h-0.6V43h1.5V43.2z"/>
</svg>
