<svg version="1.1" id="Layer_1" xmlns="http://www.w3.org/2000/svg" xmlns:xlink="http://www.w3.org/1999/xlink" x="0px" y="0px"
	 width="100%" viewBox="0 0 2000 1247" enable-background="new 0 0 2000 1247" xml:space="preserve">
<path fill="#FFFFFF" opacity="1.000000" stroke="none"
	d="
M2000.000000,1248.000000
	C1334.295776,1248.000000 668.591492,1248.000000 2.443604,1247.549072
	C2.000000,831.732117 2.000000,416.366058 2.000000,1.000000
	C667.704285,1.000000 1333.408569,1.000000 1999.556396,1.450905
	C2000.000000,417.267883 2000.000000,832.633911 2000.000000,1248.000000
M1498.500000,1193.000000
	C1646.919434,1193.000000 1795.338867,1193.000000 1943.612061,1193.000000
	C1943.612061,813.593994 1943.612061,434.872528 1943.612061,56.254379
	C1314.955566,56.254379 686.686829,56.254379 58.300011,56.254379
	C58.300011,435.230255 58.300011,813.951660 58.300011,1193.000000
	C538.233276,1193.000000 1017.866638,1193.000000 1498.500000,1193.000000
z"/>
<path fill="transparent" opacity="1.000000" stroke="none"
	d="
M1.500000,1.000000
	C2.000000,416.366058 2.000000,831.732117 1.999997,1247.549072
	C1.666660,1247.833374 1.056179,1247.684082 1.044446,1247.497192
	C0.961014,1246.169067 1.000000,1244.833374 1.000000,1243.500000
	C1.000000,829.333313 1.000000,415.166656 1.500000,1.000000
z"/>
<path fill="transparent" opacity="1.000000" stroke="none"
	d="
M2000.500000,1248.000000
	C2000.000000,832.633911 2000.000000,417.267883 2000.000000,1.450895
	C2000.333374,1.166646 2000.943970,1.315887 2000.955566,1.502769
	C2001.039062,2.830878 2001.000000,4.166667 2001.000000,5.500000
	C2001.000000,419.666656 2001.000000,833.833313 2000.500000,1248.000000
z"/>
<path fill="transparent" opacity="1.000000" stroke="none"
	d="
M1498.000000,1193.000000
	C1017.866638,1193.000000 538.233276,1193.000000 58.300011,1193.000000
	C58.300011,813.951660 58.300011,435.230255 58.300011,56.254379
	C686.686829,56.254379 1314.955566,56.254379 1943.612061,56.254379
	C1943.612061,434.872528 1943.612061,813.593994 1943.612061,1193.000000
	C1795.338867,1193.000000 1646.919434,1193.000000 1498.000000,1193.000000
M349.500000,321.000000
	C300.393524,321.000000 251.287064,321.000000 202.145294,321.000000
	C202.090454,322.224945 201.908218,322.923126 202.053009,323.545258
	C209.124802,353.929840 216.239197,384.304474 223.316391,414.687805
	C227.923676,434.467560 232.448471,454.266571 237.068817,474.043243
	C244.424210,505.526794 251.836227,536.997131 259.209412,568.476501
	C264.174225,589.673462 269.100281,610.879456 274.066864,632.075928
	C281.442688,663.554443 288.815735,695.033752 296.234192,726.502258
	C301.788025,750.061279 307.438751,773.597412 312.997040,797.155396
	C319.674591,825.457031 326.317383,853.766968 332.940643,882.081360
	C336.489105,897.250977 339.964996,912.437622 343.502899,927.743164
	C415.225525,927.743164 486.979492,927.743164 558.774414,927.743164
	C558.932983,926.188477 558.940002,924.856384 559.217712,923.583313
	C564.448303,899.602783 569.837341,875.656067 574.931824,851.646851
	C580.164856,826.984924 584.992554,802.236938 590.226929,777.575317
	C595.322693,753.566589 600.824463,729.644104 605.938538,705.639160
	C612.410583,675.260498 618.656067,644.833557 625.028625,614.433594
	C628.664490,597.088440 632.321655,579.747375 636.098450,562.432678
	C636.401062,561.045349 637.711487,559.877930 639.158691,557.695923
	C641.643250,569.095154 643.884094,579.063293 645.980652,589.061584
	C650.152954,608.958862 654.148804,628.893616 658.397339,648.774414
	C663.153015,671.028137 668.225098,693.214478 672.944397,715.475708
	C678.172668,740.137573 683.065369,764.870544 688.277893,789.535828
	C692.378113,808.937805 696.811462,828.269226 700.972046,847.658752
	C706.361450,872.774109 711.799255,897.881836 716.785217,923.078186
	C717.671448,927.556458 719.549255,928.064819 723.323486,928.060242
	C791.482971,927.977600 859.642517,928.000000 927.802063,928.000000
	C929.291748,928.000000 930.781494,928.000000 932.373352,928.000000
	C932.616760,927.457825 932.871887,927.069519 932.970276,926.644836
	C937.372131,907.646301 941.695862,888.629517 946.166382,869.647156
	C951.714844,846.087463 957.466064,822.575317 962.980347,799.007629
	C970.828003,765.467163 978.532776,731.893188 986.311829,698.336609
	C992.219055,672.854248 998.117981,647.369873 1004.072937,621.898682
	C1011.433228,590.416687 1018.813782,558.939331 1026.249878,527.475159
	C1032.115845,502.655029 1038.120239,477.867584 1043.988525,453.047974
	C1050.679077,424.750061 1057.317627,396.439728 1063.917969,368.120636
	C1067.553955,352.520203 1071.065063,336.890686 1074.695068,321.000397
	C1073.469971,321.000397 1072.644653,321.000397 1071.819214,321.000366
	C1009.325745,321.000244 946.832275,321.000183 884.338806,321.000122
	C883.838867,321.000122 883.204712,320.803558 882.862793,321.036163
	C881.545959,321.932007 879.836548,322.719635 879.185364,324.008331
	C878.338989,325.683075 878.358826,327.796387 878.010803,329.721863
	C874.302612,350.237335 870.684082,370.769501 866.860229,391.263336
	C863.696594,408.219055 860.240295,425.119934 857.006653,442.062866
	C853.862610,458.536713 850.880615,475.041473 847.746033,491.517151
	C844.887146,506.543945 841.860107,521.538818 839.014954,536.568115
	C835.864929,553.208191 832.904846,569.884338 829.737549,586.520996
	C826.572571,603.145386 823.226868,619.735168 820.012817,636.350342
	C818.281311,645.300964 816.678650,654.276550 814.948608,663.227417
	C814.826965,663.857117 814.130493,664.375671 813.701294,664.945923
	C813.142395,664.508057 812.329407,664.181824 812.077698,663.609070
	C811.560791,662.432739 811.281555,661.137634 811.013977,659.868408
	C808.129639,646.184875 805.302734,632.489197 802.388672,618.812073
	C798.628113,601.161804 794.746765,583.537231 791.019714,565.880005
	C786.820984,545.988647 782.811462,526.057251 778.579102,506.173248
	C774.822815,488.526062 770.772156,470.941467 767.035400,453.290283
	C762.185059,430.378479 757.607117,407.408997 752.742798,384.500214
	C748.623962,365.102783 743.997559,345.808472 740.208435,326.349182
	C739.314087,321.756042 737.775146,320.911591 733.604309,320.919647
	C672.944214,321.036743 612.283813,321.000000 551.623474,321.000000
	C549.819763,321.000000 548.016052,321.000000 546.063416,321.000000
	C534.531799,378.859589 523.211914,436.337372 511.594574,493.755005
	C500.037933,550.872559 488.962555,608.093567 476.337860,665.050354
	C474.975555,663.753296 474.290283,662.611023 474.045929,661.381104
	C468.972229,635.843811 464.059540,610.274048 458.884705,584.757446
	C453.389648,557.661743 447.538757,530.638184 442.056976,503.539825
	C436.216736,474.669403 430.739624,445.725494 424.896698,416.855621
	C418.734650,386.408875 412.160095,356.044312 406.222687,325.554840
	C405.405609,321.359100 403.892303,320.933380 400.494507,320.954010
	C383.830200,321.055359 367.164917,321.000000 349.500000,321.000000
M1541.477905,878.958923
	C1549.670654,893.401306 1557.972900,907.783264 1565.983887,922.325806
	C1568.147339,926.253113 1570.402222,928.152832 1575.336304,928.139221
	C1648.328735,927.937317 1721.321777,928.000000 1794.314697,928.000000
	C1796.098633,928.000000 1797.882568,928.000000 1800.832153,928.000000
	C1726.436035,808.421997 1652.552856,689.668274 1578.676025,570.924622
	C1585.575928,562.956360 1592.102539,555.336426 1598.720947,547.797058
	C1606.547852,538.880981 1614.519409,530.091125 1622.310059,521.143677
	C1632.674072,509.240631 1642.871704,497.192535 1653.240112,485.293365
	C1661.143433,476.223419 1669.285767,467.361359 1677.172363,458.277130
	C1691.723633,441.516418 1706.141602,424.640015 1720.660400,407.850983
	C1731.745361,395.032745 1742.849609,382.230377 1754.037231,369.501801
	C1766.981567,354.774475 1780.037109,340.144775 1793.009155,325.441650
	C1794.056763,324.254211 1794.831543,322.826202 1796.082275,321.000153
	C1715.548096,321.000153 1636.057129,320.986115 1556.566162,321.101532
	C1554.988892,321.103821 1553.025635,322.268372 1551.906616,323.496063
	C1547.592896,328.228912 1543.540283,333.200256 1539.407471,338.097046
	C1531.991943,346.883270 1524.544434,355.642883 1517.191406,364.481171
	C1507.966553,375.569702 1498.865112,386.760895 1489.632324,397.842560
	C1482.272705,406.675690 1474.745728,415.369141 1467.383789,424.200287
	C1457.935425,435.534332 1448.609497,446.970520 1439.170776,458.312744
	C1431.922729,467.022491 1424.539185,475.619507 1417.292725,484.330536
	C1407.962158,495.546997 1398.742798,506.855957 1389.409790,518.070435
	C1382.055420,526.907715 1374.552246,535.621277 1367.205322,544.464600
	C1358.310303,555.171265 1349.515259,565.961121 1340.633667,576.679077
	C1340.442017,576.910400 1339.727173,576.708191 1338.835693,576.708191
	C1338.835693,491.493164 1338.835693,406.416809 1338.835693,321.334656
	C1273.362061,321.334656 1208.309204,321.334656 1143.363037,321.334656
	C1143.363037,523.712708 1143.363037,725.755920 1143.363037,927.771423
	C1208.661011,927.771423 1273.595825,927.771423 1339.000000,927.771423
	C1339.000000,925.775391 1339.000000,923.982849 1339.000000,922.190247
	C1339.000000,880.527649 1339.084961,838.864563 1338.872437,797.203064
	C1338.850342,792.901550 1340.617554,790.416504 1343.581787,788.081604
	C1349.746948,783.225464 1355.965698,778.433411 1362.023438,773.445923
	C1374.055908,763.539124 1385.947388,753.460693 1397.984863,743.559631
	C1410.384277,733.360901 1422.871338,723.268127 1435.359131,713.177551
	C1438.028442,711.020691 1440.866211,709.072449 1443.970581,706.773193
	C1449.994995,717.521851 1455.605713,727.619385 1461.298340,737.670532
	C1472.211914,756.939392 1483.140625,776.199890 1494.123413,795.429321
	C1501.878052,809.006409 1509.814697,822.479919 1517.519043,836.085205
	C1525.462646,850.113098 1533.223633,864.244507 1541.477905,878.958923
z"/>
<path fill="#FFFFFF" opacity="1.000000" stroke="none"
	d="
M350.000000,321.000000
	C367.164917,321.000000 383.830200,321.055359 400.494507,320.954010
	C403.892303,320.933380 405.405609,321.359100 406.222687,325.554840
	C412.160095,356.044312 418.734650,386.408875 424.896698,416.855621
	C430.739624,445.725494 436.216736,474.669403 442.056976,503.539825
	C447.538757,530.638184 453.389648,557.661743 458.884705,584.757446
	C464.059540,610.274048 468.972229,635.843811 474.045929,661.381104
	C474.290283,662.611023 474.975555,663.753296 476.337860,665.050354
	C488.962555,608.093567 500.037933,550.872559 511.594574,493.755005
	C523.211914,436.337372 534.531799,378.859589 546.063416,321.000000
	C548.016052,321.000000 549.819763,321.000000 551.623474,321.000000
	C612.283813,321.000000 672.944214,321.036743 733.604309,320.919647
	C737.775146,320.911591 739.314087,321.756042 740.208435,326.349182
	C743.997559,345.808472 748.623962,365.102783 752.742798,384.500214
	C757.607117,407.408997 762.185059,430.378479 767.035400,453.290283
	C770.772156,470.941467 774.822815,488.526062 778.579102,506.173248
	C782.811462,526.057251 786.820984,545.988647 791.019714,565.880005
	C794.746765,583.537231 798.628113,601.161804 802.388672,618.812073
	C805.302734,632.489197 808.129639,646.184875 811.013977,659.868408
	C811.281555,661.137634 811.560791,662.432739 812.077698,663.609070
	C812.329407,664.181824 813.142395,664.508057 813.701294,664.945923
	C814.130493,664.375671 814.826965,663.857117 814.948608,663.227417
	C816.678650,654.276550 818.281311,645.300964 820.012817,636.350342
	C823.226868,619.735168 826.572571,603.145386 829.737549,586.520996
	C832.904846,569.884338 835.864929,553.208191 839.014954,536.568115
	C841.860107,521.538818 844.887146,506.543945 847.746033,491.517151
	C850.880615,475.041473 853.862610,458.536713 857.006653,442.062866
	C860.240295,425.119934 863.696594,408.219055 866.860229,391.263336
	C870.684082,370.769501 874.302612,350.237335 878.010803,329.721863
	C878.358826,327.796387 878.338989,325.683075 879.185364,324.008331
	C879.836548,322.719635 881.545959,321.932007 882.862793,321.036163
	C883.204712,320.803558 883.838867,321.000122 884.338806,321.000122
	C946.832275,321.000183 1009.325745,321.000244 1071.819214,321.000366
	C1072.644653,321.000397 1073.469971,321.000397 1074.695068,321.000397
	C1071.065063,336.890686 1067.553955,352.520203 1063.917969,368.120636
	C1057.317627,396.439728 1050.679077,424.750061 1043.988525,453.047974
	C1038.120239,477.867584 1032.115845,502.655029 1026.249878,527.475159
	C1018.813782,558.939331 1011.433228,590.416687 1004.072937,621.898682
	C998.117981,647.369873 992.219055,672.854248 986.311829,698.336609
	C978.532776,731.893188 970.828003,765.467163 962.980347,799.007629
	C957.466064,822.575317 951.714844,846.087463 946.166382,869.647156
	C941.695862,888.629517 937.372131,907.646301 932.970276,926.644836
	C932.871887,927.069519 932.616760,927.457825 932.373352,928.000000
	C930.781494,928.000000 929.291748,928.000000 927.802063,928.000000
	C859.642517,928.000000 791.482971,927.977600 723.323486,928.060242
	C719.549255,928.064819 717.671448,927.556458 716.785217,923.078186
	C711.799255,897.881836 706.361450,872.774109 700.972046,847.658752
	C696.811462,828.269226 692.378113,808.937805 688.277893,789.535828
	C683.065369,764.870544 678.172668,740.137573 672.944397,715.475708
	C668.225098,693.214478 663.153015,671.028137 658.397339,648.774414
	C654.148804,628.893616 650.152954,608.958862 645.980652,589.061584
	C643.884094,579.063293 641.643250,569.095154 639.158691,557.695923
	C637.711487,559.877930 636.401062,561.045349 636.098450,562.432678
	C632.321655,579.747375 628.664490,597.088440 625.028625,614.433594
	C618.656067,644.833557 612.410583,675.260498 605.938538,705.639160
	C600.824463,729.644104 595.322693,753.566589 590.226929,777.575317
	C584.992554,802.236938 580.164856,826.984924 574.931824,851.646851
	C569.837341,875.656067 564.448303,899.602783 559.217712,923.583313
	C558.940002,924.856384 558.932983,926.188477 558.774414,927.743164
	C486.979492,927.743164 415.225525,927.743164 343.502899,927.743164
	C339.964996,912.437622 336.489105,897.250977 332.940643,882.081360
	C326.317383,853.766968 319.674591,825.457031 312.997040,797.155396
	C307.438751,773.597412 301.788025,750.061279 296.234192,726.502258
	C288.815735,695.033752 281.442688,663.554443 274.066864,632.075928
	C269.100281,610.879456 264.174225,589.673462 259.209412,568.476501
	C251.836227,536.997131 244.424210,505.526794 237.068817,474.043243
	C232.448471,454.266571 227.923676,434.467560 223.316391,414.687805
	C216.239197,384.304474 209.124802,353.929840 202.053009,323.545258
	C201.908218,322.923126 202.090454,322.224945 202.145294,321.000000
	C251.287064,321.000000 300.393524,321.000000 350.000000,321.000000
z"/>
<path fill="#FFFFFF" opacity="1.000000" stroke="none"
	d="
M1541.271240,878.644775
	C1533.223633,864.244507 1525.462646,850.113098 1517.519043,836.085205
	C1509.814697,822.479919 1501.878052,809.006409 1494.123413,795.429321
	C1483.140625,776.199890 1472.211914,756.939392 1461.298340,737.670532
	C1455.605713,727.619385 1449.994995,717.521851 1443.970581,706.773193
	C1440.866211,709.072449 1438.028442,711.020691 1435.359131,713.177551
	C1422.871338,723.268127 1410.384277,733.360901 1397.984863,743.559631
	C1385.947388,753.460693 1374.055908,763.539124 1362.023438,773.445923
	C1355.965698,778.433411 1349.746948,783.225464 1343.581787,788.081604
	C1340.617554,790.416504 1338.850342,792.901550 1338.872437,797.203064
	C1339.084961,838.864563 1339.000000,880.527649 1339.000000,922.190247
	C1339.000000,923.982849 1339.000000,925.775391 1339.000000,927.771423
	C1273.595825,927.771423 1208.661011,927.771423 1143.363037,927.771423
	C1143.363037,725.755920 1143.363037,523.712708 1143.363037,321.334656
	C1208.309204,321.334656 1273.362061,321.334656 1338.835693,321.334656
	C1338.835693,406.416809 1338.835693,491.493164 1338.835693,576.708191
	C1339.727173,576.708191 1340.442017,576.910400 1340.633667,576.679077
	C1349.515259,565.961121 1358.310303,555.171265 1367.205322,544.464600
	C1374.552246,535.621277 1382.055420,526.907715 1389.409790,518.070435
	C1398.742798,506.855957 1407.962158,495.546997 1417.292725,484.330536
	C1424.539185,475.619507 1431.922729,467.022491 1439.170776,458.312744
	C1448.609497,446.970520 1457.935425,435.534332 1467.383789,424.200287
	C1474.745728,415.369141 1482.272705,406.675690 1489.632324,397.842560
	C1498.865112,386.760895 1507.966553,375.569702 1517.191406,364.481171
	C1524.544434,355.642883 1531.991943,346.883270 1539.407471,338.097046
	C1543.540283,333.200256 1547.592896,328.228912 1551.906616,323.496063
	C1553.025635,322.268372 1554.988892,321.103821 1556.566162,321.101532
	C1636.057129,320.986115 1715.548096,321.000153 1796.082275,321.000153
	C1794.831543,322.826202 1794.056763,324.254211 1793.009155,325.441650
	C1780.037109,340.144775 1766.981567,354.774475 1754.037231,369.501801
	C1742.849609,382.230377 1731.745361,395.032745 1720.660400,407.850983
	C1706.141602,424.640015 1691.723633,441.516418 1677.172363,458.277130
	C1669.285767,467.361359 1661.143433,476.223419 1653.240112,485.293365
	C1642.871704,497.192535 1632.674072,509.240631 1622.310059,521.143677
	C1614.519409,530.091125 1606.547852,538.880981 1598.720947,547.797058
	C1592.102539,555.336426 1585.575928,562.956360 1578.676025,570.924622
	C1652.552856,689.668274 1726.436035,808.421997 1800.832153,928.000000
	C1797.882568,928.000000 1796.098633,928.000000 1794.314697,928.000000
	C1721.321777,928.000000 1648.328735,927.937317 1575.336304,928.139221
	C1570.402222,928.152832 1568.147339,926.253113 1565.983887,922.325806
	C1557.972900,907.783264 1549.670654,893.401306 1541.271240,878.644775
z"/>
</svg>
