<svg xmlns="http://www.w3.org/2000/svg" xmlns:svg="http://www.w3.org/2000/svg" id="svg2" version="1.1" viewBox="270.67 270.67 525.33 525.33" xml:space="preserve"><metadata id="metadata8"/><g id="g10" transform="matrix(1.3333333,0,0,-1.3333333,0,1066.6667)"><g id="g12" transform="scale(0.1)"><path id="path14" style="fill:#fff;fill-opacity:1;fill-rule:nonzero;stroke:none" d="m 2400.12,3820 c -6.61,59.12 -10.12,119.15 -10.12,180 0,60.85 3.51,120.88 10.12,180 72.83,651.65 536.12,1186.97 1149.88,1365.91 115.23,33.6 235.75,54.65 360,61.53 29.8,1.65 59.79,2.56 90,2.56 30.21,0 60.2,-0.91 90,-2.56 V 2572.92 c 124.99,7.8 245.67,31.69 360,69.69 v 922.83 l 568.19,-568.19 c 85.03,86.31 159.26,183.27 220.33,288.79 l -713.96,713.96 713.96,713.96 c -61.08,105.52 -135.3,202.48 -220.33,288.79 L 4450,4434.56 v 1483.75 c -116.37,27.19 -236.71,44.01 -360,49.56 -29.84,1.34 -59.83,2.13 -90,2.13 -30.17,0 -60.16,-0.79 -90,-2.13 -123.29,-5.55 -243.63,-22.37 -360,-49.56 C 2735.52,5727.99 2115.49,5032.36 2038.27,4180 c -5.37,-59.29 -8.27,-119.31 -8.27,-180 0,-60.7 2.9,-120.71 8.27,-180 C 2109.7,3031.64 2645.5,2377.41 3370,2133.01 v 385.55 c -522.8,223.17 -904.36,715.2 -969.88,1301.44"/><path id="path16" style="fill:#fff;fill-opacity:1;fill-rule:nonzero;stroke:none" d="m 5961.73,4180 c -71.38,787.83 -606.5,1441.71 -1330.26,1686.5 v -385.69 c 522.05,-223.47 902.95,-715.12 968.41,-1300.81 6.61,-59.12 10.12,-119.15 10.12,-180 0,-60.85 -3.51,-120.88 -10.12,-180 C 5527.05,3168.35 5063.76,2633.03 4450,2454.09 c -115.23,-33.6 -235.75,-54.65 -360,-61.53 -29.8,-1.65 -59.79,-2.56 -90,-2.56 -30.21,0 -60.2,0.91 -90,2.56 v 3034.52 c -124.99,-7.8 -245.67,-31.69 -360,-69.69 V 3715.05 l -302.26,401.5 -288.29,-365.81 c -5.47,22.82 -10.26,45.9 -14.23,69.26 -9.96,58.54 -15.22,118.66 -15.22,180 0,61.34 5.26,121.46 15.22,180 26.77,157.33 88.08,303.01 175.7,429.08 L 2863.4,4866.6 C 2713.91,4671.04 2613.59,4435.99 2581.29,4180 2573.86,4121.03 2570,4060.96 2570,4000 c 0,-60.96 3.86,-121.03 11.29,-180 17.97,-142.41 57.11,-278.28 113.91,-404.56 54.34,-120.79 124.9,-232.73 209.01,-333 L 3247.74,3522.21 3550,3088.95 V 2081.69 c 116.37,-27.19 236.71,-44.01 360,-49.56 29.84,-1.34 59.83,-2.13 90,-2.13 30.17,0 60.16,0.79 90,2.13 123.29,5.55 243.63,22.37 360,49.56 814.48,190.32 1434.51,885.95 1511.73,1738.31 5.37,59.29 8.27,119.31 8.27,180 0,60.69 -2.9,120.71 -8.27,180"/></g></g></svg>
